<svg width="16" height="16" viewBox="0 0 16 16" fill="none" xmlns="http://www.w3.org/2000/svg">
<g clip-path="url(#clip0_33_6)">
<rect width="16" height="16" rx="2" fill="white"/>
<path d="M3.74731 2.20312V15H1.1106V2.20312H3.74731ZM11.4114 2.20312L6.34009 8.52246L3.41333 11.6689L2.93872 9.17285L4.91626 6.46582L8.177 2.20312H11.4114ZM8.41431 15L4.6438 9.08496L6.59497 7.4502L11.5344 15H8.41431ZM12.5188 13.7783C12.5188 13.4033 12.6477 13.0898 12.9055 12.8379C13.1692 12.5859 13.5178 12.46 13.9514 12.46C14.385 12.46 14.7307 12.5859 14.9885 12.8379C15.2522 13.0898 15.384 13.4033 15.384 13.7783C15.384 14.1533 15.2522 14.4668 14.9885 14.7188C14.7307 14.9707 14.385 15.0967 13.9514 15.0967C13.5178 15.0967 13.1692 14.9707 12.9055 14.7188C12.6477 14.4668 12.5188 14.1533 12.5188 13.7783Z" fill="black"/>
</g>
<defs>
<clipPath id="clip0_33_6">
<rect width="16" height="16" rx="2" fill="white"/>
</clipPath>
</defs>
</svg>
